<mxfile host="app.diagrams.net" modified="2023-06-06T23:30:28.334Z" agent="Mozilla/5.0 (Windows NT 10.0; Win64; x64) AppleWebKit/537.36 (KHTML, like Gecko) Chrome/114.0.0.0 Safari/537.36" etag="bMwK5Wh9-oqvuulRthPP" version="21.3.7" type="google">
  <diagram id="R2lEEEUBdFMjLlhIrx00" name="Page-1">
    <mxGraphModel grid="1" page="1" gridSize="10" guides="1" tooltips="1" connect="1" arrows="1" fold="1" pageScale="1" pageWidth="850" pageHeight="1100" math="0" shadow="0" extFonts="Permanent Marker^https://fonts.googleapis.com/css?family=Permanent+Marker">
      <root>
        <mxCell id="0" />
        <mxCell id="1" parent="0" />
        <mxCell id="FsbHmCcZyHtZq-50vwJJ-17" style="edgeStyle=orthogonalEdgeStyle;rounded=0;orthogonalLoop=1;jettySize=auto;html=1;exitX=1;exitY=0.5;exitDx=0;exitDy=0;entryX=0;entryY=0.5;entryDx=0;entryDy=0;" edge="1" parent="1" source="6pKmyGxvdpUdLlEuxZki-1" target="FsbHmCcZyHtZq-50vwJJ-7">
          <mxGeometry relative="1" as="geometry" />
        </mxCell>
        <mxCell id="6pKmyGxvdpUdLlEuxZki-1" value="Rental" style="whiteSpace=wrap;html=1;align=center;" vertex="1" parent="1">
          <mxGeometry x="550" y="280" width="100" height="40" as="geometry" />
        </mxCell>
        <mxCell id="6ZyW0sAJE0HRgdwCqhg4-4" style="edgeStyle=orthogonalEdgeStyle;rounded=0;orthogonalLoop=1;jettySize=auto;html=1;entryX=0;entryY=0.5;entryDx=0;entryDy=0;endArrow=none;endFill=0;" edge="1" parent="1" source="6pKmyGxvdpUdLlEuxZki-7" target="6ZyW0sAJE0HRgdwCqhg4-5">
          <mxGeometry relative="1" as="geometry">
            <mxPoint x="300" y="240" as="targetPoint" />
            <Array as="points">
              <mxPoint x="240" y="300" />
              <mxPoint x="240" y="230" />
            </Array>
          </mxGeometry>
        </mxCell>
        <mxCell id="6ZyW0sAJE0HRgdwCqhg4-11" style="edgeStyle=orthogonalEdgeStyle;rounded=0;orthogonalLoop=1;jettySize=auto;html=1;endArrow=none;endFill=0;" edge="1" parent="1" source="6pKmyGxvdpUdLlEuxZki-7" target="6pKmyGxvdpUdLlEuxZki-33">
          <mxGeometry relative="1" as="geometry" />
        </mxCell>
        <mxCell id="FsbHmCcZyHtZq-50vwJJ-25" style="edgeStyle=orthogonalEdgeStyle;rounded=0;orthogonalLoop=1;jettySize=auto;html=1;exitX=0;exitY=0.5;exitDx=0;exitDy=0;entryX=1;entryY=0.5;entryDx=0;entryDy=0;" edge="1" parent="1" source="6pKmyGxvdpUdLlEuxZki-7" target="FsbHmCcZyHtZq-50vwJJ-6">
          <mxGeometry relative="1" as="geometry" />
        </mxCell>
        <mxCell id="6pKmyGxvdpUdLlEuxZki-7" value="Customer" style="whiteSpace=wrap;html=1;align=center;" vertex="1" parent="1">
          <mxGeometry x="60" y="280" width="100" height="40" as="geometry" />
        </mxCell>
        <mxCell id="6pKmyGxvdpUdLlEuxZki-13" value="" style="endArrow=none;html=1;rounded=0;entryX=0;entryY=0.5;entryDx=0;entryDy=0;exitX=1;exitY=0.5;exitDx=0;exitDy=0;" edge="1" parent="1" source="6ZyW0sAJE0HRgdwCqhg4-7" target="6pKmyGxvdpUdLlEuxZki-1">
          <mxGeometry relative="1" as="geometry">
            <mxPoint x="470" y="300" as="sourcePoint" />
            <mxPoint x="500" y="300" as="targetPoint" />
          </mxGeometry>
        </mxCell>
        <mxCell id="6pKmyGxvdpUdLlEuxZki-16" value="N" style="edgeLabel;html=1;align=center;verticalAlign=middle;resizable=0;points=[];" vertex="1" connectable="0" parent="6pKmyGxvdpUdLlEuxZki-13">
          <mxGeometry x="0.32" y="-1" relative="1" as="geometry">
            <mxPoint x="17" y="9" as="offset" />
          </mxGeometry>
        </mxCell>
        <mxCell id="hH_n0KKbAxWxpdyZoROu-49" value="N" style="edgeLabel;html=1;align=center;verticalAlign=middle;resizable=0;points=[];" vertex="1" connectable="0" parent="6pKmyGxvdpUdLlEuxZki-13">
          <mxGeometry x="0.32" y="-1" relative="1" as="geometry">
            <mxPoint x="87" y="29" as="offset" />
          </mxGeometry>
        </mxCell>
        <mxCell id="6ZyW0sAJE0HRgdwCqhg4-20" style="edgeStyle=orthogonalEdgeStyle;rounded=0;orthogonalLoop=1;jettySize=auto;html=1;entryX=1;entryY=0.5;entryDx=0;entryDy=0;endArrow=none;endFill=0;" edge="1" parent="1" source="6pKmyGxvdpUdLlEuxZki-22" target="VFMVXamjBh_9oBxiHtGt-1">
          <mxGeometry relative="1" as="geometry" />
        </mxCell>
        <mxCell id="FsbHmCcZyHtZq-50vwJJ-18" style="edgeStyle=orthogonalEdgeStyle;rounded=0;orthogonalLoop=1;jettySize=auto;html=1;exitX=1;exitY=0.5;exitDx=0;exitDy=0;entryX=0.5;entryY=0;entryDx=0;entryDy=0;" edge="1" parent="1" source="6pKmyGxvdpUdLlEuxZki-22" target="FsbHmCcZyHtZq-50vwJJ-3">
          <mxGeometry relative="1" as="geometry" />
        </mxCell>
        <mxCell id="6pKmyGxvdpUdLlEuxZki-22" value="Staff" style="whiteSpace=wrap;html=1;align=center;" vertex="1" parent="1">
          <mxGeometry x="360" y="390" width="100" height="40" as="geometry" />
        </mxCell>
        <mxCell id="6ZyW0sAJE0HRgdwCqhg4-12" style="edgeStyle=orthogonalEdgeStyle;rounded=0;orthogonalLoop=1;jettySize=auto;html=1;entryX=0.5;entryY=0;entryDx=0;entryDy=0;endArrow=none;endFill=0;" edge="1" parent="1" source="6pKmyGxvdpUdLlEuxZki-32" target="hH_n0KKbAxWxpdyZoROu-59">
          <mxGeometry relative="1" as="geometry" />
        </mxCell>
        <mxCell id="FsbHmCcZyHtZq-50vwJJ-26" style="edgeStyle=orthogonalEdgeStyle;rounded=0;orthogonalLoop=1;jettySize=auto;html=1;exitX=0;exitY=0.5;exitDx=0;exitDy=0;entryX=1;entryY=0.5;entryDx=0;entryDy=0;" edge="1" parent="1" source="6pKmyGxvdpUdLlEuxZki-32" target="FsbHmCcZyHtZq-50vwJJ-9">
          <mxGeometry relative="1" as="geometry" />
        </mxCell>
        <mxCell id="6pKmyGxvdpUdLlEuxZki-32" value="Address" style="whiteSpace=wrap;html=1;align=center;" vertex="1" parent="1">
          <mxGeometry x="60" y="485" width="100" height="40" as="geometry" />
        </mxCell>
        <mxCell id="6pKmyGxvdpUdLlEuxZki-33" value="Vive en" style="shape=rhombus;perimeter=rhombusPerimeter;whiteSpace=wrap;html=1;align=center;" vertex="1" parent="1">
          <mxGeometry x="50" y="380" width="120" height="60" as="geometry" />
        </mxCell>
        <mxCell id="6pKmyGxvdpUdLlEuxZki-37" value="1" style="endArrow=none;html=1;rounded=0;entryX=0.5;entryY=1;entryDx=0;entryDy=0;exitX=0.5;exitY=0;exitDx=0;exitDy=0;" edge="1" parent="1" source="6pKmyGxvdpUdLlEuxZki-32" target="6pKmyGxvdpUdLlEuxZki-33">
          <mxGeometry x="-0.4286" y="-10" relative="1" as="geometry">
            <mxPoint x="-320" y="430" as="sourcePoint" />
            <mxPoint x="-160" y="430" as="targetPoint" />
            <mxPoint as="offset" />
          </mxGeometry>
        </mxCell>
        <mxCell id="6ZyW0sAJE0HRgdwCqhg4-19" style="edgeStyle=orthogonalEdgeStyle;rounded=0;orthogonalLoop=1;jettySize=auto;html=1;entryX=1;entryY=0.5;entryDx=0;entryDy=0;endArrow=none;endFill=0;" edge="1" parent="1" source="6pKmyGxvdpUdLlEuxZki-47" target="6pKmyGxvdpUdLlEuxZki-69">
          <mxGeometry relative="1" as="geometry" />
        </mxCell>
        <mxCell id="FsbHmCcZyHtZq-50vwJJ-19" style="edgeStyle=orthogonalEdgeStyle;rounded=0;orthogonalLoop=1;jettySize=auto;html=1;exitX=1;exitY=0.5;exitDx=0;exitDy=0;entryX=0;entryY=0.5;entryDx=0;entryDy=0;" edge="1" parent="1" source="6pKmyGxvdpUdLlEuxZki-47" target="FsbHmCcZyHtZq-50vwJJ-8">
          <mxGeometry relative="1" as="geometry" />
        </mxCell>
        <mxCell id="6pKmyGxvdpUdLlEuxZki-47" value="Store" style="whiteSpace=wrap;html=1;align=center;" vertex="1" parent="1">
          <mxGeometry x="360" y="550" width="100" height="40" as="geometry" />
        </mxCell>
        <mxCell id="6pKmyGxvdpUdLlEuxZki-60" value="" style="endArrow=none;html=1;rounded=0;entryX=0.5;entryY=1;entryDx=0;entryDy=0;exitX=0.5;exitY=0;exitDx=0;exitDy=0;" edge="1" parent="1" source="6pKmyGxvdpUdLlEuxZki-22">
          <mxGeometry relative="1" as="geometry">
            <mxPoint x="410" y="390" as="sourcePoint" />
            <mxPoint x="410" y="330" as="targetPoint" />
          </mxGeometry>
        </mxCell>
        <mxCell id="6pKmyGxvdpUdLlEuxZki-64" value="1" style="edgeLabel;html=1;align=center;verticalAlign=middle;resizable=0;points=[];" vertex="1" connectable="0" parent="6pKmyGxvdpUdLlEuxZki-60">
          <mxGeometry x="-0.3745" y="2" relative="1" as="geometry">
            <mxPoint x="12" y="7" as="offset" />
          </mxGeometry>
        </mxCell>
        <mxCell id="hH_n0KKbAxWxpdyZoROu-42" value="1" style="edgeLabel;html=1;align=center;verticalAlign=middle;resizable=0;points=[];" vertex="1" connectable="0" parent="6pKmyGxvdpUdLlEuxZki-60">
          <mxGeometry x="-0.3745" y="2" relative="1" as="geometry">
            <mxPoint x="32" y="482" as="offset" />
          </mxGeometry>
        </mxCell>
        <mxCell id="hH_n0KKbAxWxpdyZoROu-48" value="1" style="edgeLabel;html=1;align=center;verticalAlign=middle;resizable=0;points=[];" vertex="1" connectable="0" parent="6pKmyGxvdpUdLlEuxZki-60">
          <mxGeometry x="-0.3745" y="2" relative="1" as="geometry">
            <mxPoint x="202" y="109" as="offset" />
          </mxGeometry>
        </mxCell>
        <mxCell id="hH_n0KKbAxWxpdyZoROu-52" value="1" style="edgeLabel;html=1;align=center;verticalAlign=middle;resizable=0;points=[];" vertex="1" connectable="0" parent="6pKmyGxvdpUdLlEuxZki-60">
          <mxGeometry x="-0.3745" y="2" relative="1" as="geometry">
            <mxPoint x="22" y="322" as="offset" />
          </mxGeometry>
        </mxCell>
        <mxCell id="hH_n0KKbAxWxpdyZoROu-64" value="1" style="edgeLabel;html=1;align=center;verticalAlign=middle;resizable=0;points=[];" vertex="1" connectable="0" parent="6pKmyGxvdpUdLlEuxZki-60">
          <mxGeometry x="-0.3745" y="2" relative="1" as="geometry">
            <mxPoint x="-288" y="279" as="offset" />
          </mxGeometry>
        </mxCell>
        <mxCell id="hH_n0KKbAxWxpdyZoROu-75" value="1" style="edgeLabel;html=1;align=center;verticalAlign=middle;resizable=0;points=[];" vertex="1" connectable="0" parent="6pKmyGxvdpUdLlEuxZki-60">
          <mxGeometry x="-0.3745" y="2" relative="1" as="geometry">
            <mxPoint x="-288" y="469" as="offset" />
          </mxGeometry>
        </mxCell>
        <mxCell id="6pKmyGxvdpUdLlEuxZki-65" value="Trabaja" style="shape=rhombus;perimeter=rhombusPerimeter;whiteSpace=wrap;html=1;align=center;" vertex="1" parent="1">
          <mxGeometry x="350" y="460" width="120" height="60" as="geometry" />
        </mxCell>
        <mxCell id="6pKmyGxvdpUdLlEuxZki-66" value="1" style="endArrow=none;html=1;rounded=0;exitX=0.5;exitY=1;exitDx=0;exitDy=0;entryX=0.5;entryY=0;entryDx=0;entryDy=0;" edge="1" parent="1" source="6pKmyGxvdpUdLlEuxZki-22" target="6pKmyGxvdpUdLlEuxZki-65">
          <mxGeometry x="-0.1429" y="10" relative="1" as="geometry">
            <mxPoint x="510" y="470" as="sourcePoint" />
            <mxPoint x="670" y="470" as="targetPoint" />
            <mxPoint as="offset" />
          </mxGeometry>
        </mxCell>
        <mxCell id="6pKmyGxvdpUdLlEuxZki-67" value="N" style="endArrow=none;html=1;rounded=0;entryX=0.5;entryY=0;entryDx=0;entryDy=0;exitX=0.5;exitY=1;exitDx=0;exitDy=0;" edge="1" parent="1" source="6pKmyGxvdpUdLlEuxZki-65" target="6pKmyGxvdpUdLlEuxZki-47">
          <mxGeometry x="0.3333" y="10" relative="1" as="geometry">
            <mxPoint x="410" y="530" as="sourcePoint" />
            <mxPoint x="670" y="470" as="targetPoint" />
            <mxPoint as="offset" />
          </mxGeometry>
        </mxCell>
        <mxCell id="6ZyW0sAJE0HRgdwCqhg4-18" style="edgeStyle=orthogonalEdgeStyle;rounded=0;orthogonalLoop=1;jettySize=auto;html=1;entryX=1;entryY=0.75;entryDx=0;entryDy=0;endArrow=none;endFill=0;" edge="1" parent="1" source="6pKmyGxvdpUdLlEuxZki-69" target="6pKmyGxvdpUdLlEuxZki-32">
          <mxGeometry relative="1" as="geometry">
            <Array as="points">
              <mxPoint x="260" y="515" />
            </Array>
          </mxGeometry>
        </mxCell>
        <mxCell id="6pKmyGxvdpUdLlEuxZki-69" value="Tiene" style="shape=rhombus;perimeter=rhombusPerimeter;whiteSpace=wrap;html=1;align=center;" vertex="1" parent="1">
          <mxGeometry x="200" y="540" width="120" height="60" as="geometry" />
        </mxCell>
        <mxCell id="6ZyW0sAJE0HRgdwCqhg4-1" style="edgeStyle=orthogonalEdgeStyle;rounded=0;orthogonalLoop=1;jettySize=auto;html=1;entryX=0.5;entryY=0;entryDx=0;entryDy=0;endArrow=none;endFill=0;" edge="1" parent="1" source="hH_n0KKbAxWxpdyZoROu-1" target="hH_n0KKbAxWxpdyZoROu-12">
          <mxGeometry relative="1" as="geometry" />
        </mxCell>
        <mxCell id="6ZyW0sAJE0HRgdwCqhg4-9" style="edgeStyle=orthogonalEdgeStyle;rounded=0;orthogonalLoop=1;jettySize=auto;html=1;entryX=0.5;entryY=0;entryDx=0;entryDy=0;endArrow=none;endFill=0;" edge="1" parent="1" source="hH_n0KKbAxWxpdyZoROu-1" target="hH_n0KKbAxWxpdyZoROu-7">
          <mxGeometry relative="1" as="geometry" />
        </mxCell>
        <mxCell id="FsbHmCcZyHtZq-50vwJJ-16" style="edgeStyle=orthogonalEdgeStyle;rounded=0;orthogonalLoop=1;jettySize=auto;html=1;exitX=0.75;exitY=1;exitDx=0;exitDy=0;entryX=0;entryY=0.5;entryDx=0;entryDy=0;" edge="1" parent="1" source="hH_n0KKbAxWxpdyZoROu-1" target="FsbHmCcZyHtZq-50vwJJ-2">
          <mxGeometry relative="1" as="geometry" />
        </mxCell>
        <mxCell id="hH_n0KKbAxWxpdyZoROu-1" value="Payment" style="rounded=0;whiteSpace=wrap;html=1;" vertex="1" parent="1">
          <mxGeometry x="230" y="60" width="110" height="40" as="geometry" />
        </mxCell>
        <mxCell id="hH_n0KKbAxWxpdyZoROu-4" value="1" style="text;html=1;strokeColor=none;fillColor=none;align=center;verticalAlign=middle;whiteSpace=wrap;rounded=0;" vertex="1" parent="1">
          <mxGeometry x="110" y="260" width="20" height="20" as="geometry" />
        </mxCell>
        <mxCell id="hH_n0KKbAxWxpdyZoROu-5" value="N" style="text;html=1;strokeColor=none;fillColor=none;align=center;verticalAlign=middle;whiteSpace=wrap;rounded=0;" vertex="1" parent="1">
          <mxGeometry x="270" y="100" width="30" height="20" as="geometry" />
        </mxCell>
        <mxCell id="6ZyW0sAJE0HRgdwCqhg4-10" style="edgeStyle=orthogonalEdgeStyle;rounded=0;orthogonalLoop=1;jettySize=auto;html=1;endArrow=none;endFill=0;" edge="1" parent="1" source="hH_n0KKbAxWxpdyZoROu-7" target="6pKmyGxvdpUdLlEuxZki-7">
          <mxGeometry relative="1" as="geometry" />
        </mxCell>
        <mxCell id="hH_n0KKbAxWxpdyZoROu-7" value="Paga" style="rhombus;whiteSpace=wrap;html=1;" vertex="1" parent="1">
          <mxGeometry x="60" y="150" width="100" height="60" as="geometry" />
        </mxCell>
        <mxCell id="hH_n0KKbAxWxpdyZoROu-10" value="1" style="text;html=1;strokeColor=none;fillColor=none;align=center;verticalAlign=middle;whiteSpace=wrap;rounded=0;" vertex="1" parent="1">
          <mxGeometry x="360" y="370" width="20" height="15" as="geometry" />
        </mxCell>
        <mxCell id="hH_n0KKbAxWxpdyZoROu-11" value="N" style="text;html=1;strokeColor=none;fillColor=none;align=center;verticalAlign=middle;whiteSpace=wrap;rounded=0;" vertex="1" parent="1">
          <mxGeometry x="530" y="270" width="20" height="10" as="geometry" />
        </mxCell>
        <mxCell id="6ZyW0sAJE0HRgdwCqhg4-3" style="edgeStyle=orthogonalEdgeStyle;rounded=0;orthogonalLoop=1;jettySize=auto;html=1;endArrow=none;endFill=0;" edge="1" parent="1" source="hH_n0KKbAxWxpdyZoROu-12" target="6pKmyGxvdpUdLlEuxZki-1">
          <mxGeometry relative="1" as="geometry" />
        </mxCell>
        <mxCell id="hH_n0KKbAxWxpdyZoROu-12" value="de" style="rhombus;whiteSpace=wrap;html=1;strokeColor=#F0DDE4;" vertex="1" parent="1">
          <mxGeometry x="555" y="155" width="90" height="50" as="geometry" />
        </mxCell>
        <mxCell id="hH_n0KKbAxWxpdyZoROu-15" value="" style="endArrow=none;html=1;rounded=0;entryX=0.5;entryY=0;entryDx=0;entryDy=0;exitX=0.5;exitY=0;exitDx=0;exitDy=0;" edge="1" parent="1" source="hH_n0KKbAxWxpdyZoROu-5" target="hH_n0KKbAxWxpdyZoROu-13">
          <mxGeometry width="50" height="50" relative="1" as="geometry">
            <mxPoint x="260" y="210" as="sourcePoint" />
            <mxPoint x="550" y="280" as="targetPoint" />
            <Array as="points" />
          </mxGeometry>
        </mxCell>
        <mxCell id="6ZyW0sAJE0HRgdwCqhg4-8" style="edgeStyle=orthogonalEdgeStyle;rounded=0;orthogonalLoop=1;jettySize=auto;html=1;endArrow=none;endFill=0;entryX=0.25;entryY=0;entryDx=0;entryDy=0;exitX=0.5;exitY=1;exitDx=0;exitDy=0;" edge="1" parent="1" source="hH_n0KKbAxWxpdyZoROu-13" target="6pKmyGxvdpUdLlEuxZki-22">
          <mxGeometry relative="1" as="geometry">
            <mxPoint x="380" y="380" as="targetPoint" />
            <Array as="points">
              <mxPoint x="285" y="330" />
              <mxPoint x="385" y="330" />
            </Array>
          </mxGeometry>
        </mxCell>
        <mxCell id="hH_n0KKbAxWxpdyZoROu-13" value="Recibe" style="rhombus;whiteSpace=wrap;html=1;" vertex="1" parent="1">
          <mxGeometry x="235" y="150" width="100" height="60" as="geometry" />
        </mxCell>
        <mxCell id="hH_n0KKbAxWxpdyZoROu-18" value="N" style="text;html=1;strokeColor=none;fillColor=none;align=center;verticalAlign=middle;whiteSpace=wrap;rounded=0;" vertex="1" parent="1">
          <mxGeometry x="340" y="80" width="10" height="30" as="geometry" />
        </mxCell>
        <mxCell id="hH_n0KKbAxWxpdyZoROu-19" value="N" style="text;html=1;strokeColor=none;fillColor=none;align=center;verticalAlign=middle;whiteSpace=wrap;rounded=0;" vertex="1" parent="1">
          <mxGeometry x="210" y="90" width="20" height="10" as="geometry" />
        </mxCell>
        <mxCell id="FsbHmCcZyHtZq-50vwJJ-23" style="edgeStyle=orthogonalEdgeStyle;rounded=0;orthogonalLoop=1;jettySize=auto;html=1;exitX=0.5;exitY=1;exitDx=0;exitDy=0;" edge="1" parent="1" source="hH_n0KKbAxWxpdyZoROu-20" target="FsbHmCcZyHtZq-50vwJJ-12">
          <mxGeometry relative="1" as="geometry" />
        </mxCell>
        <mxCell id="hH_n0KKbAxWxpdyZoROu-20" value="Actor" style="rounded=0;whiteSpace=wrap;html=1;" vertex="1" parent="1">
          <mxGeometry x="240" y="860" width="90" height="40" as="geometry" />
        </mxCell>
        <mxCell id="6ZyW0sAJE0HRgdwCqhg4-23" style="edgeStyle=orthogonalEdgeStyle;rounded=0;orthogonalLoop=1;jettySize=auto;html=1;endArrow=none;endFill=0;" edge="1" parent="1" source="hH_n0KKbAxWxpdyZoROu-25" target="hH_n0KKbAxWxpdyZoROu-35">
          <mxGeometry relative="1" as="geometry" />
        </mxCell>
        <mxCell id="FsbHmCcZyHtZq-50vwJJ-29" style="edgeStyle=orthogonalEdgeStyle;rounded=0;orthogonalLoop=1;jettySize=auto;html=1;exitX=0.25;exitY=0;exitDx=0;exitDy=0;entryX=1;entryY=0.5;entryDx=0;entryDy=0;" edge="1" parent="1" source="hH_n0KKbAxWxpdyZoROu-25" target="FsbHmCcZyHtZq-50vwJJ-15">
          <mxGeometry relative="1" as="geometry" />
        </mxCell>
        <mxCell id="hH_n0KKbAxWxpdyZoROu-25" value="Film" style="rounded=0;whiteSpace=wrap;html=1;" vertex="1" parent="1">
          <mxGeometry x="390" y="700" width="90" height="40" as="geometry" />
        </mxCell>
        <mxCell id="hH_n0KKbAxWxpdyZoROu-26" value="" style="endArrow=none;html=1;rounded=0;exitX=1;exitY=0.5;exitDx=0;exitDy=0;entryX=0;entryY=0.5;entryDx=0;entryDy=0;" edge="1" parent="1" source="hH_n0KKbAxWxpdyZoROu-31" target="hH_n0KKbAxWxpdyZoROu-25">
          <mxGeometry width="50" height="50" relative="1" as="geometry">
            <mxPoint x="330" y="730" as="sourcePoint" />
            <mxPoint x="380" y="680" as="targetPoint" />
          </mxGeometry>
        </mxCell>
        <mxCell id="hH_n0KKbAxWxpdyZoROu-27" value="N" style="text;html=1;strokeColor=none;fillColor=none;align=center;verticalAlign=middle;whiteSpace=wrap;rounded=0;" vertex="1" parent="1">
          <mxGeometry x="280" y="850" width="30" height="10" as="geometry" />
        </mxCell>
        <mxCell id="hH_n0KKbAxWxpdyZoROu-28" value="M" style="text;html=1;strokeColor=none;fillColor=none;align=center;verticalAlign=middle;whiteSpace=wrap;rounded=0;" vertex="1" parent="1">
          <mxGeometry x="370" y="710" width="20" height="10" as="geometry" />
        </mxCell>
        <mxCell id="FsbHmCcZyHtZq-50vwJJ-21" style="edgeStyle=orthogonalEdgeStyle;rounded=0;orthogonalLoop=1;jettySize=auto;html=1;exitX=0.5;exitY=1;exitDx=0;exitDy=0;entryX=0.5;entryY=0;entryDx=0;entryDy=0;" edge="1" parent="1" source="hH_n0KKbAxWxpdyZoROu-30" target="FsbHmCcZyHtZq-50vwJJ-13">
          <mxGeometry relative="1" as="geometry" />
        </mxCell>
        <mxCell id="hH_n0KKbAxWxpdyZoROu-30" value="Category" style="rounded=0;whiteSpace=wrap;html=1;" vertex="1" parent="1">
          <mxGeometry x="535" y="860" width="100" height="40" as="geometry" />
        </mxCell>
        <mxCell id="hH_n0KKbAxWxpdyZoROu-32" value="" style="endArrow=none;html=1;rounded=0;exitX=0.5;exitY=0;exitDx=0;exitDy=0;entryX=0.5;entryY=1;entryDx=0;entryDy=0;" edge="1" parent="1" source="hH_n0KKbAxWxpdyZoROu-20" target="hH_n0KKbAxWxpdyZoROu-31">
          <mxGeometry width="50" height="50" relative="1" as="geometry">
            <mxPoint x="170" y="720" as="sourcePoint" />
            <mxPoint x="390" y="720" as="targetPoint" />
          </mxGeometry>
        </mxCell>
        <mxCell id="hH_n0KKbAxWxpdyZoROu-31" value="Actua" style="rhombus;whiteSpace=wrap;html=1;" vertex="1" parent="1">
          <mxGeometry x="230" y="695" width="110" height="50" as="geometry" />
        </mxCell>
        <mxCell id="6ZyW0sAJE0HRgdwCqhg4-24" style="edgeStyle=orthogonalEdgeStyle;rounded=0;orthogonalLoop=1;jettySize=auto;html=1;endArrow=none;endFill=0;" edge="1" parent="1" source="hH_n0KKbAxWxpdyZoROu-35" target="hH_n0KKbAxWxpdyZoROu-30">
          <mxGeometry relative="1" as="geometry" />
        </mxCell>
        <mxCell id="hH_n0KKbAxWxpdyZoROu-35" value="Pertenece" style="rhombus;whiteSpace=wrap;html=1;" vertex="1" parent="1">
          <mxGeometry x="530" y="695" width="110" height="50" as="geometry" />
        </mxCell>
        <mxCell id="FsbHmCcZyHtZq-50vwJJ-22" style="edgeStyle=orthogonalEdgeStyle;rounded=0;orthogonalLoop=1;jettySize=auto;html=1;exitX=0.5;exitY=1;exitDx=0;exitDy=0;entryX=0.5;entryY=0;entryDx=0;entryDy=0;" edge="1" parent="1" source="hH_n0KKbAxWxpdyZoROu-37" target="FsbHmCcZyHtZq-50vwJJ-14">
          <mxGeometry relative="1" as="geometry" />
        </mxCell>
        <mxCell id="FsbHmCcZyHtZq-50vwJJ-24" style="edgeStyle=orthogonalEdgeStyle;rounded=0;orthogonalLoop=1;jettySize=auto;html=1;exitX=0.5;exitY=1;exitDx=0;exitDy=0;" edge="1" parent="1" source="hH_n0KKbAxWxpdyZoROu-37" target="FsbHmCcZyHtZq-50vwJJ-14">
          <mxGeometry relative="1" as="geometry" />
        </mxCell>
        <mxCell id="hH_n0KKbAxWxpdyZoROu-37" value="Languaje" style="rounded=0;whiteSpace=wrap;html=1;" vertex="1" parent="1">
          <mxGeometry x="390" y="860" width="90" height="40" as="geometry" />
        </mxCell>
        <mxCell id="hH_n0KKbAxWxpdyZoROu-38" value="" style="endArrow=none;html=1;rounded=0;exitX=0.5;exitY=0;exitDx=0;exitDy=0;entryX=0.5;entryY=1;entryDx=0;entryDy=0;" edge="1" parent="1" source="hH_n0KKbAxWxpdyZoROu-45" target="hH_n0KKbAxWxpdyZoROu-25">
          <mxGeometry width="50" height="50" relative="1" as="geometry">
            <mxPoint x="330" y="730" as="sourcePoint" />
            <mxPoint x="380" y="680" as="targetPoint" />
          </mxGeometry>
        </mxCell>
        <mxCell id="hH_n0KKbAxWxpdyZoROu-39" value="N" style="text;html=1;strokeColor=none;fillColor=none;align=center;verticalAlign=middle;whiteSpace=wrap;rounded=0;" vertex="1" parent="1">
          <mxGeometry x="440" y="740" width="20" height="25" as="geometry" />
        </mxCell>
        <mxCell id="FsbHmCcZyHtZq-50vwJJ-20" style="edgeStyle=orthogonalEdgeStyle;rounded=0;orthogonalLoop=1;jettySize=auto;html=1;exitX=1;exitY=0.5;exitDx=0;exitDy=0;" edge="1" parent="1" source="hH_n0KKbAxWxpdyZoROu-43" target="FsbHmCcZyHtZq-50vwJJ-5">
          <mxGeometry relative="1" as="geometry" />
        </mxCell>
        <mxCell id="hH_n0KKbAxWxpdyZoROu-43" value="Inventory" style="rounded=0;whiteSpace=wrap;html=1;" vertex="1" parent="1">
          <mxGeometry x="555" y="490" width="90" height="40" as="geometry" />
        </mxCell>
        <mxCell id="hH_n0KKbAxWxpdyZoROu-44" value="" style="endArrow=none;html=1;rounded=0;entryX=0.5;entryY=1;entryDx=0;entryDy=0;exitX=0.5;exitY=0;exitDx=0;exitDy=0;" edge="1" parent="1" source="hH_n0KKbAxWxpdyZoROu-43" target="6pKmyGxvdpUdLlEuxZki-1">
          <mxGeometry width="50" height="50" relative="1" as="geometry">
            <mxPoint x="330" y="530" as="sourcePoint" />
            <mxPoint x="380" y="480" as="targetPoint" />
          </mxGeometry>
        </mxCell>
        <mxCell id="hH_n0KKbAxWxpdyZoROu-46" value="" style="endArrow=none;html=1;rounded=0;exitX=0.5;exitY=0;exitDx=0;exitDy=0;entryX=0.5;entryY=1;entryDx=0;entryDy=0;" edge="1" parent="1" source="hH_n0KKbAxWxpdyZoROu-37" target="hH_n0KKbAxWxpdyZoROu-45">
          <mxGeometry width="50" height="50" relative="1" as="geometry">
            <mxPoint x="435" y="860" as="sourcePoint" />
            <mxPoint x="435" y="740" as="targetPoint" />
          </mxGeometry>
        </mxCell>
        <mxCell id="hH_n0KKbAxWxpdyZoROu-45" value="tiene" style="rhombus;whiteSpace=wrap;html=1;" vertex="1" parent="1">
          <mxGeometry x="380" y="780" width="110" height="50" as="geometry" />
        </mxCell>
        <mxCell id="hH_n0KKbAxWxpdyZoROu-47" value="Tiene" style="rhombus;whiteSpace=wrap;html=1;" vertex="1" parent="1">
          <mxGeometry x="545" y="385" width="110" height="50" as="geometry" />
        </mxCell>
        <mxCell id="hH_n0KKbAxWxpdyZoROu-50" value="" style="endArrow=none;html=1;rounded=0;entryX=0.5;entryY=1;entryDx=0;entryDy=0;exitX=0.5;exitY=0;exitDx=0;exitDy=0;" edge="1" parent="1" source="hH_n0KKbAxWxpdyZoROu-54" target="hH_n0KKbAxWxpdyZoROu-43">
          <mxGeometry width="50" height="50" relative="1" as="geometry">
            <mxPoint x="330" y="630" as="sourcePoint" />
            <mxPoint x="380" y="580" as="targetPoint" />
            <Array as="points">
              <mxPoint x="600" y="580" />
            </Array>
          </mxGeometry>
        </mxCell>
        <mxCell id="hH_n0KKbAxWxpdyZoROu-51" value="N" style="text;html=1;strokeColor=none;fillColor=none;align=center;verticalAlign=middle;whiteSpace=wrap;rounded=0;" vertex="1" parent="1">
          <mxGeometry x="600" y="535" width="20" height="10" as="geometry" />
        </mxCell>
        <mxCell id="hH_n0KKbAxWxpdyZoROu-53" value="M" style="text;html=1;strokeColor=none;fillColor=none;align=center;verticalAlign=middle;whiteSpace=wrap;rounded=0;" vertex="1" parent="1">
          <mxGeometry x="480" y="710" width="20" height="10" as="geometry" />
        </mxCell>
        <mxCell id="6ZyW0sAJE0HRgdwCqhg4-22" style="edgeStyle=orthogonalEdgeStyle;rounded=0;orthogonalLoop=1;jettySize=auto;html=1;entryX=0.5;entryY=0;entryDx=0;entryDy=0;endArrow=none;endFill=0;" edge="1" parent="1" source="hH_n0KKbAxWxpdyZoROu-54" target="hH_n0KKbAxWxpdyZoROu-25">
          <mxGeometry relative="1" as="geometry" />
        </mxCell>
        <mxCell id="hH_n0KKbAxWxpdyZoROu-54" value="Guardan" style="rhombus;whiteSpace=wrap;html=1;" vertex="1" parent="1">
          <mxGeometry x="545" y="590" width="110" height="50" as="geometry" />
        </mxCell>
        <mxCell id="6ZyW0sAJE0HRgdwCqhg4-13" style="edgeStyle=orthogonalEdgeStyle;rounded=0;orthogonalLoop=1;jettySize=auto;html=1;entryX=0.5;entryY=0;entryDx=0;entryDy=0;endArrow=none;endFill=0;" edge="1" parent="1" source="hH_n0KKbAxWxpdyZoROu-59" target="hH_n0KKbAxWxpdyZoROu-61">
          <mxGeometry relative="1" as="geometry" />
        </mxCell>
        <mxCell id="hH_n0KKbAxWxpdyZoROu-59" value="Está" style="rhombus;whiteSpace=wrap;html=1;" vertex="1" parent="1">
          <mxGeometry x="55" y="570" width="110" height="50" as="geometry" />
        </mxCell>
        <mxCell id="hH_n0KKbAxWxpdyZoROu-62" value="" style="endArrow=none;html=1;rounded=0;" edge="1" parent="1" target="hH_n0KKbAxWxpdyZoROu-61">
          <mxGeometry width="50" height="50" relative="1" as="geometry">
            <mxPoint x="80" y="680" as="sourcePoint" />
            <mxPoint x="80" y="510" as="targetPoint" />
          </mxGeometry>
        </mxCell>
        <mxCell id="FsbHmCcZyHtZq-50vwJJ-27" style="edgeStyle=orthogonalEdgeStyle;rounded=0;orthogonalLoop=1;jettySize=auto;html=1;exitX=0;exitY=0.5;exitDx=0;exitDy=0;" edge="1" parent="1" source="hH_n0KKbAxWxpdyZoROu-61" target="FsbHmCcZyHtZq-50vwJJ-10">
          <mxGeometry relative="1" as="geometry" />
        </mxCell>
        <mxCell id="hH_n0KKbAxWxpdyZoROu-61" value="city" style="rounded=0;whiteSpace=wrap;html=1;" vertex="1" parent="1">
          <mxGeometry x="65" y="660" width="90" height="40" as="geometry" />
        </mxCell>
        <mxCell id="hH_n0KKbAxWxpdyZoROu-63" value="N" style="text;html=1;strokeColor=none;fillColor=none;align=center;verticalAlign=middle;whiteSpace=wrap;rounded=0;" vertex="1" parent="1">
          <mxGeometry x="110" y="530" width="20" height="10" as="geometry" />
        </mxCell>
        <mxCell id="FsbHmCcZyHtZq-50vwJJ-28" style="edgeStyle=orthogonalEdgeStyle;rounded=0;orthogonalLoop=1;jettySize=auto;html=1;exitX=0;exitY=0.5;exitDx=0;exitDy=0;" edge="1" parent="1" source="hH_n0KKbAxWxpdyZoROu-65" target="FsbHmCcZyHtZq-50vwJJ-11">
          <mxGeometry relative="1" as="geometry" />
        </mxCell>
        <mxCell id="hH_n0KKbAxWxpdyZoROu-65" value="country" style="rounded=0;whiteSpace=wrap;html=1;" vertex="1" parent="1">
          <mxGeometry x="65" y="850" width="90" height="40" as="geometry" />
        </mxCell>
        <mxCell id="6ZyW0sAJE0HRgdwCqhg4-15" style="edgeStyle=orthogonalEdgeStyle;rounded=0;orthogonalLoop=1;jettySize=auto;html=1;entryX=0.5;entryY=0;entryDx=0;entryDy=0;endArrow=none;endFill=0;" edge="1" parent="1" source="hH_n0KKbAxWxpdyZoROu-66" target="hH_n0KKbAxWxpdyZoROu-65">
          <mxGeometry relative="1" as="geometry" />
        </mxCell>
        <mxCell id="hH_n0KKbAxWxpdyZoROu-66" value="Está " style="rhombus;whiteSpace=wrap;html=1;" vertex="1" parent="1">
          <mxGeometry x="55" y="745" width="110" height="50" as="geometry" />
        </mxCell>
        <mxCell id="hH_n0KKbAxWxpdyZoROu-68" value="" style="endArrow=none;html=1;rounded=0;entryX=0.5;entryY=1;entryDx=0;entryDy=0;exitX=0.5;exitY=0;exitDx=0;exitDy=0;" edge="1" parent="1" source="hH_n0KKbAxWxpdyZoROu-74" target="hH_n0KKbAxWxpdyZoROu-61">
          <mxGeometry width="50" height="50" relative="1" as="geometry">
            <mxPoint x="80" y="740" as="sourcePoint" />
            <mxPoint x="85" y="695" as="targetPoint" />
          </mxGeometry>
        </mxCell>
        <mxCell id="6ZyW0sAJE0HRgdwCqhg4-21" style="edgeStyle=orthogonalEdgeStyle;rounded=0;orthogonalLoop=1;jettySize=auto;html=1;entryX=1;entryY=0.25;entryDx=0;entryDy=0;endArrow=none;endFill=0;" edge="1" parent="1" source="VFMVXamjBh_9oBxiHtGt-1" target="6pKmyGxvdpUdLlEuxZki-32">
          <mxGeometry relative="1" as="geometry" />
        </mxCell>
        <mxCell id="VFMVXamjBh_9oBxiHtGt-1" value="Vive en" style="shape=rhombus;perimeter=rhombusPerimeter;whiteSpace=wrap;html=1;align=center;" vertex="1" parent="1">
          <mxGeometry x="200" y="410" width="120" height="60" as="geometry" />
        </mxCell>
        <mxCell id="6ZyW0sAJE0HRgdwCqhg4-6" style="edgeStyle=orthogonalEdgeStyle;rounded=0;orthogonalLoop=1;jettySize=auto;html=1;entryX=0;entryY=0;entryDx=0;entryDy=0;endArrow=none;endFill=0;" edge="1" parent="1" source="6ZyW0sAJE0HRgdwCqhg4-5" target="6pKmyGxvdpUdLlEuxZki-1">
          <mxGeometry relative="1" as="geometry" />
        </mxCell>
        <mxCell id="6ZyW0sAJE0HRgdwCqhg4-5" value="Alquila" style="rhombus;whiteSpace=wrap;html=1;" vertex="1" parent="1">
          <mxGeometry x="380" y="200" width="100" height="60" as="geometry" />
        </mxCell>
        <mxCell id="6ZyW0sAJE0HRgdwCqhg4-7" value="Tiene" style="rhombus;whiteSpace=wrap;html=1;" vertex="1" parent="1">
          <mxGeometry x="360" y="270" width="100" height="60" as="geometry" />
        </mxCell>
        <mxCell id="6ZyW0sAJE0HRgdwCqhg4-17" value="" style="endArrow=none;html=1;rounded=0;entryX=0.5;entryY=1;entryDx=0;entryDy=0;exitX=0.5;exitY=0;exitDx=0;exitDy=0;" edge="1" parent="1" source="hH_n0KKbAxWxpdyZoROu-66" target="hH_n0KKbAxWxpdyZoROu-74">
          <mxGeometry width="50" height="50" relative="1" as="geometry">
            <mxPoint x="110" y="745" as="sourcePoint" />
            <mxPoint x="110" y="700" as="targetPoint" />
          </mxGeometry>
        </mxCell>
        <mxCell id="hH_n0KKbAxWxpdyZoROu-74" value="N" style="text;html=1;strokeColor=none;fillColor=none;align=center;verticalAlign=middle;whiteSpace=wrap;rounded=0;" vertex="1" parent="1">
          <mxGeometry x="100" y="710" width="20" height="10" as="geometry" />
        </mxCell>
        <mxCell id="ZiwtpalDFUC6WkPLmccz-1" value="1" style="text;html=1;strokeColor=none;fillColor=none;align=center;verticalAlign=middle;whiteSpace=wrap;rounded=0;" vertex="1" parent="1">
          <mxGeometry x="600" y="270" width="20" height="10" as="geometry" />
        </mxCell>
        <mxCell id="ZiwtpalDFUC6WkPLmccz-4" value="1" style="text;html=1;strokeColor=none;fillColor=none;align=center;verticalAlign=middle;whiteSpace=wrap;rounded=0;" vertex="1" parent="1">
          <mxGeometry x="165" y="290" width="20" height="10" as="geometry" />
        </mxCell>
        <mxCell id="ZiwtpalDFUC6WkPLmccz-6" value="N" style="edgeLabel;html=1;align=center;verticalAlign=middle;resizable=0;points=[];" connectable="0" vertex="1" parent="1">
          <mxGeometry x="155" y="300" as="geometry">
            <mxPoint x="-38" y="26" as="offset" />
          </mxGeometry>
        </mxCell>
        <mxCell id="ZiwtpalDFUC6WkPLmccz-12" value="N" style="edgeLabel;html=1;align=center;verticalAlign=middle;resizable=0;points=[];" connectable="0" vertex="1" parent="1">
          <mxGeometry x="546" y="320" as="geometry">
            <mxPoint x="-196" y="88" as="offset" />
          </mxGeometry>
        </mxCell>
        <mxCell id="ZiwtpalDFUC6WkPLmccz-17" value="1" style="text;html=1;strokeColor=none;fillColor=none;align=center;verticalAlign=middle;whiteSpace=wrap;rounded=0;" vertex="1" parent="1">
          <mxGeometry x="160" y="475" width="20" height="15" as="geometry" />
        </mxCell>
        <mxCell id="ZiwtpalDFUC6WkPLmccz-20" value="N" style="text;html=1;strokeColor=none;fillColor=none;align=center;verticalAlign=middle;whiteSpace=wrap;rounded=0;" vertex="1" parent="1">
          <mxGeometry x="340" y="560" width="20" height="10" as="geometry" />
        </mxCell>
        <mxCell id="ZiwtpalDFUC6WkPLmccz-23" value="1" style="text;html=1;strokeColor=none;fillColor=none;align=center;verticalAlign=middle;whiteSpace=wrap;rounded=0;" vertex="1" parent="1">
          <mxGeometry x="160" y="515" width="20" height="15" as="geometry" />
        </mxCell>
        <mxCell id="ZiwtpalDFUC6WkPLmccz-24" value="N" style="text;html=1;strokeColor=none;fillColor=none;align=center;verticalAlign=middle;whiteSpace=wrap;rounded=0;" vertex="1" parent="1">
          <mxGeometry x="580" y="850" width="30" height="10" as="geometry" />
        </mxCell>
        <mxCell id="3TIMr4Warc-0G4FnU6fr-1" value="&lt;font style=&quot;font-size: 18px;&quot;&gt;Diagrama de entidad relación de&amp;nbsp;Sakila DVD Rental-BD&amp;nbsp;&lt;/font&gt;" style="text;html=1;strokeColor=none;fillColor=none;align=center;verticalAlign=middle;whiteSpace=wrap;rounded=0;" vertex="1" parent="1">
          <mxGeometry x="130" y="20" width="480" height="30" as="geometry" />
        </mxCell>
        <mxCell id="FsbHmCcZyHtZq-50vwJJ-2" value="Payment_id" style="ellipse;whiteSpace=wrap;html=1;" vertex="1" parent="1">
          <mxGeometry x="350" y="100" width="90" height="40" as="geometry" />
        </mxCell>
        <mxCell id="FsbHmCcZyHtZq-50vwJJ-3" value="Staff_id" style="ellipse;whiteSpace=wrap;html=1;" vertex="1" parent="1">
          <mxGeometry x="465" y="435" width="90" height="40" as="geometry" />
        </mxCell>
        <mxCell id="FsbHmCcZyHtZq-50vwJJ-5" value="Inventory_id" style="ellipse;whiteSpace=wrap;html=1;" vertex="1" parent="1">
          <mxGeometry x="680" y="490" width="90" height="40" as="geometry" />
        </mxCell>
        <mxCell id="FsbHmCcZyHtZq-50vwJJ-6" value="Customer_id" style="ellipse;whiteSpace=wrap;html=1;" vertex="1" parent="1">
          <mxGeometry x="-70" y="280" width="90" height="40" as="geometry" />
        </mxCell>
        <mxCell id="FsbHmCcZyHtZq-50vwJJ-7" value="Rental_id" style="ellipse;whiteSpace=wrap;html=1;" vertex="1" parent="1">
          <mxGeometry x="680" y="280" width="90" height="40" as="geometry" />
        </mxCell>
        <mxCell id="FsbHmCcZyHtZq-50vwJJ-8" value="Store_id" style="ellipse;whiteSpace=wrap;html=1;" vertex="1" parent="1">
          <mxGeometry x="470" y="550" width="90" height="40" as="geometry" />
        </mxCell>
        <mxCell id="FsbHmCcZyHtZq-50vwJJ-9" value="Address_id" style="ellipse;whiteSpace=wrap;html=1;" vertex="1" parent="1">
          <mxGeometry x="-80" y="485" width="90" height="40" as="geometry" />
        </mxCell>
        <mxCell id="FsbHmCcZyHtZq-50vwJJ-10" value="city_id" style="ellipse;whiteSpace=wrap;html=1;" vertex="1" parent="1">
          <mxGeometry x="-70" y="660" width="90" height="40" as="geometry" />
        </mxCell>
        <mxCell id="FsbHmCcZyHtZq-50vwJJ-11" value="country_id" style="ellipse;whiteSpace=wrap;html=1;" vertex="1" parent="1">
          <mxGeometry x="-70" y="850" width="90" height="40" as="geometry" />
        </mxCell>
        <mxCell id="FsbHmCcZyHtZq-50vwJJ-12" value="Actor_id" style="ellipse;whiteSpace=wrap;html=1;" vertex="1" parent="1">
          <mxGeometry x="240" y="940" width="90" height="40" as="geometry" />
        </mxCell>
        <mxCell id="FsbHmCcZyHtZq-50vwJJ-13" value="Category_id" style="ellipse;whiteSpace=wrap;html=1;" vertex="1" parent="1">
          <mxGeometry x="540" y="940" width="90" height="40" as="geometry" />
        </mxCell>
        <mxCell id="FsbHmCcZyHtZq-50vwJJ-14" value="Languaje_id" style="ellipse;whiteSpace=wrap;html=1;" vertex="1" parent="1">
          <mxGeometry x="390" y="940" width="90" height="40" as="geometry" />
        </mxCell>
        <mxCell id="FsbHmCcZyHtZq-50vwJJ-15" value="Film_id" style="ellipse;whiteSpace=wrap;html=1;" vertex="1" parent="1">
          <mxGeometry x="320" y="640" width="90" height="40" as="geometry" />
        </mxCell>
      </root>
    </mxGraphModel>
  </diagram>
</mxfile>
